<?xml version="1.0" standalone="no"?>
<!DOCTYPE svg PUBLIC "-//W3C//DTD SVG 20010904//EN"
 "http://www.w3.org/TR/2001/REC-SVG-20010904/DTD/svg10.dtd">
<svg version="1.0" xmlns="http://www.w3.org/2000/svg"
 width="700.000000pt" height="700.000000pt" viewBox="0 0 700.000000 700.000000"
 preserveAspectRatio="xMidYMid meet">
<metadata>
Created by potrace 1.14, written by Peter Selinger 2001-2017
</metadata>
<g transform="translate(0.000000,700.000000) scale(0.100000,-0.100000)"
fill="#000000" stroke="none">
<path d="M2051 5083 l-1470 -738 657 -328 c542 -272 662 -328 687 -324 17 3
370 175 785 382 716 358 757 377 800 373 34 -4 222 -94 768 -366 438 -220 733
-362 751 -362 17 0 301 135 712 339 l684 339 -1423 711 c-906 453 -1433 711
-1451 711 -19 0 -560 -266 -1500 -737z"/>
<path d="M2710 3880 c-580 -291 -764 -379 -793 -379 -27 -1 -81 21 -205 83
l-167 84 -483 -242 -482 -241 658 -329 c551 -275 664 -328 688 -323 17 3 369
175 784 381 586 293 762 376 791 376 29 0 199 -81 768 -365 535 -267 741 -365
766 -365 25 0 217 91 711 338 l676 338 -480 242 -480 242 -202 -100 c-111 -55
-212 -100 -226 -100 -13 0 -357 167 -764 370 -532 266 -749 370 -773 369 -22
0 -276 -122 -787 -379z"/>
<path d="M2710 2720 c-607 -304 -768 -380 -799 -380 -29 0 -81 21 -203 84
l-163 83 -484 -242 -484 -242 658 -326 c362 -180 668 -327 680 -327 13 0 366
171 786 380 570 283 773 380 799 380 26 0 227 -96 769 -365 528 -263 743 -365
767 -365 25 0 222 94 709 337 l675 338 -482 241 -483 241 -198 -98 c-109 -55
-210 -99 -223 -99 -13 0 -357 167 -764 370 -472 236 -751 370 -770 370 -19 0
-305 -137 -790 -380z"/>
</g>
</svg>
