<?xml version="1.0" standalone="no"?>
<!DOCTYPE svg PUBLIC "-//W3C//DTD SVG 20010904//EN"
 "http://www.w3.org/TR/2001/REC-SVG-20010904/DTD/svg10.dtd">
<svg version="1.0" xmlns="http://www.w3.org/2000/svg"
 width="700.000000pt" height="700.000000pt" viewBox="0 0 700.000000 700.000000"
 preserveAspectRatio="xMidYMid meet">
<metadata>
Created by potrace 1.14, written by Peter Selinger 2001-2017
</metadata>
<g transform="translate(0.000000,700.000000) scale(0.100000,-0.100000)"
fill="#000000" stroke="none">
<path d="M3377 5070 c-30 -9 -79 -31 -108 -47 -30 -17 -103 -56 -164 -88 -106
-56 -174 -92 -300 -160 -33 -18 -118 -63 -190 -100 -71 -37 -143 -76 -160 -85
-16 -10 -75 -41 -130 -70 -55 -29 -129 -69 -165 -88 -334 -179 -390 -200 -499
-188 -64 7 -76 9 -111 20 -22 8 -304 155 -580 304 -250 135 -324 153 -463 117
-69 -18 -424 -204 -458 -241 -19 -20 -24 -36 -24 -74 1 -76 9 -82 285 -228
274 -144 453 -243 433 -238 -13 3 -33 9 -44 12 -69 20 -224 -4 -294 -46 -16
-9 -79 -43 -140 -75 -195 -102 -212 -113 -229 -150 -20 -41 -15 -88 11 -123
19 -26 35 -35 218 -132 66 -35 143 -75 170 -90 28 -15 108 -57 178 -95 70 -37
127 -69 125 -71 -2 -1 -20 1 -40 5 -57 13 -168 5 -224 -16 -84 -32 -397 -202
-421 -229 -33 -36 -39 -86 -16 -131 20 -38 83 -76 480 -283 130 -68 185 -98
328 -175 33 -18 110 -58 170 -90 61 -32 133 -70 160 -85 233 -128 374 -198
415 -207 88 -19 259 2 305 37 11 8 77 44 240 130 55 29 133 70 173 91 39 22
107 58 150 80 42 23 104 56 137 74 33 18 110 58 170 90 61 32 169 90 240 128
370 199 394 208 518 203 99 -5 138 -21 422 -176 28 -15 95 -51 150 -80 55 -29
195 -103 310 -165 116 -62 260 -138 320 -170 61 -32 124 -66 140 -75 121 -70
291 -151 345 -165 139 -36 239 -6 513 152 32 18 60 33 63 33 4 0 535 281 669
355 22 12 140 74 262 139 234 125 254 140 259 207 3 51 -24 90 -90 127 -193
109 -365 191 -421 201 -65 11 -142 8 -192 -8 -18 -5 -33 -8 -33 -6 0 2 33 20
73 40 87 45 207 109 262 140 22 12 85 46 140 75 167 88 221 119 239 139 24 26
28 88 9 128 -17 37 -30 45 -198 133 -66 35 -138 73 -161 86 -88 51 -225 70
-321 44 -18 -4 -33 -7 -33 -5 0 2 91 52 203 111 539 286 511 268 523 338 5 38
-11 80 -42 107 -11 9 -64 40 -119 69 -55 29 -137 72 -181 96 -175 94 -315 97
-473 11 -31 -16 -83 -44 -116 -62 -33 -18 -109 -58 -170 -90 -60 -31 -123 -65
-140 -75 -111 -64 -271 -141 -324 -155 -42 -11 -85 -14 -138 -11 -82 6 -139
30 -408 175 -142 76 -255 136 -490 261 -38 20 -101 54 -140 75 -104 56 -197
106 -320 170 -60 32 -139 74 -175 93 -129 70 -250 87 -363 52z"/>
</g>
</svg>
